<?xml version="1.0" encoding="utf-8"?>
<!-- Generator: Adobe Illustrator 24.3.0, SVG Export Plug-In . SVG Version: 6.00 Build 0)  -->
<svg version="1.1" id="Layer_1" xmlns="http://www.w3.org/2000/svg" xmlns:xlink="http://www.w3.org/1999/xlink" x="0px" y="0px"
	 viewBox="0 0 397.8 369" style="enable-background:new 0 0 397.8 369;" xml:space="preserve">
<style type="text/css">
	.st0{fill:#DD3D31;}
	.st1{fill:#263238;}
	.st2{fill:#FAFAFA;}
	.st3{fill:#FFFFFF;}
	.st4{fill:#455A64;}
	.st5{fill:#FFFFFF;stroke:#FFFFFF;stroke-width:0.5;stroke-miterlimit:10;}
	.st6{opacity:0.3;}
	.st7{fill:#E0E0E0;}
	.st8{fill:#DD3D31;stroke:#DD3D31;stroke-width:0.5;stroke-miterlimit:10;}
	.st9{fill:#FFBE9D;}
	.st10{fill:#EB996E;}
	.st11{opacity:0.2;}
</style>
<g id="freepik--Plant--inject-35">
	<path class="st0" d="M374.5,285.7c2.9,1.3,5.1,3.8,6.1,6.8s1.3,6.2,0.9,9.3c-0.6,6-4,12.1-7.6,17c-5.1-4.4-6.4-12.1-6.8-16
		C366.6,296.5,369.2,284.9,374.5,285.7"/>
	<path class="st0" d="M380,328.7c-0.7-3.5,0.4-7.1,3.1-9.5c2.7-2.3,6.2-3.5,9.7-3.2c1.6,0.1,3.4,0.5,4.3,1.9c0.8,1.3,0.9,3,0.1,4.3
		s-1.8,2.4-3.2,3.2C389.7,328.2,385,330.1,380,328.7"/>
	<path class="st0" d="M371.5,332.2c-1.5-7.4-6.5-13.5-13.4-16.5c-1.7-0.7-4-1.2-5.3,0.1s-0.9,3.6-0.2,5.3
		c3.4,7.3,10.8,11.9,18.8,11.6"/>
	<path class="st1" d="M373.1,347.6c0-0.4,0.1-0.8,0.2-1.3c0.1-0.8,0.4-2,0.7-3.4c0.8-3.7,2-7.4,3.7-10.8s4.4-6.3,7.6-8.4
		c1-0.6,2-1.1,3.1-1.5c0.3-0.1,0.6-0.2,0.9-0.2c0.1,0,0.2-0.1,0.3-0.1c-1.5,0.5-2.9,1.2-4.2,2c-3.1,2.1-5.7,5-7.4,8.4
		c-1.7,3.4-3,7-3.8,10.7l-0.8,3.4C373.3,346.8,373.2,347.2,373.1,347.6z"/>
	<path class="st1" d="M373.3,294.8c0,0.2,0.1,0.4,0.1,0.5c0,0.4,0.1,0.9,0.1,1.5c0.1,1.4,0.2,3.3,0.3,5.7c0.2,4.8,0.4,11.5,0.5,18.9
		s0,14-0.2,18.9c-0.1,2.4-0.1,4.4-0.2,5.7c0,0.6-0.1,1.2-0.1,1.5c0,0.2,0,0.4-0.1,0.5c0-0.2,0-0.4,0-0.5c0-0.4,0-0.9,0-1.6
		c0-1.4,0-3.3,0.1-5.7c0.1-4.8,0.1-11.5,0.1-18.9s-0.2-14-0.4-18.9c-0.1-2.4-0.1-4.3-0.2-5.7c0-0.6,0-1.2,0-1.6
		C373.3,295.2,373.3,295,373.3,294.8z"/>
	<path class="st1" d="M359.2,321.2c0.4,0.1,0.8,0.3,1.1,0.5c0.4,0.2,0.9,0.4,1.3,0.7c0.5,0.3,1.1,0.6,1.6,1l0.9,0.6
		c0.3,0.2,0.6,0.5,0.9,0.8c0.6,0.5,1.3,1.1,1.9,1.8c1.4,1.5,2.6,3.1,3.6,4.8c1,1.7,1.8,3.6,2.4,5.5c0.3,0.8,0.5,1.7,0.7,2.5
		c0.1,0.4,0.2,0.8,0.2,1.2s0.1,0.7,0.1,1.1c0.1,0.7,0.1,1.3,0.1,1.9c0,0.5,0,1,0,1.4s0,0.8-0.1,1.2c-0.1,0,0.1-1.7-0.3-4.5
		c0-0.4-0.1-0.7-0.2-1.1s-0.2-0.8-0.2-1.1c-0.1-0.8-0.4-1.6-0.7-2.5c-1.2-3.8-3.3-7.3-6-10.2c-0.6-0.6-1.2-1.3-1.9-1.8
		c-0.3-0.3-0.6-0.5-0.9-0.8l-0.9-0.7C360.8,322,359.2,321.3,359.2,321.2z"/>
	<polygon class="st1" points="383.4,369 365.1,369 361.3,342.1 386.9,342.1 	"/>
	<path class="st2" d="M385.3,354.5c0,0.1-5,0.3-11.1,0.3s-11.1-0.1-11.1-0.3s5-0.3,11.1-0.3S385.3,354.3,385.3,354.5z"/>
	<path class="st2" d="M385.3,356.1c0,0.1-5,0.3-11.1,0.3s-11.1-0.1-11.1-0.3s5-0.3,11.1-0.3S385.3,355.9,385.3,356.1z"/>
</g>
<g id="freepik--Files--inject-35">
	<path class="st1" d="M328.6,368.9L188.5,369c-1.2,0-2.1-0.9-2.1-2.1l0,0v-84.6c0-1.2,1-2.1,2.1-2.1l0,0l140.1-0.1
		c1.2,0,2.1,1,2.1,2.1v84.6C330.7,367.9,329.8,368.9,328.6,368.9z"/>
	<polygon class="st3" points="260,315.6 271.9,321.9 260.5,329.4 249.1,336.9 248.7,323.1 248.2,309.2 	"/>
	<path class="st3" d="M320.3,360c0,0.1-27.6,0.3-61.8,0.3s-61.8-0.1-61.8-0.2s27.6-0.3,61.8-0.3S320.3,359.9,320.3,360z"/>
	<path class="st3" d="M199,360.1c0,0.9-0.7,1.6-1.6,1.6s-1.6-0.7-1.6-1.6s0.7-1.6,1.6-1.6l0,0C198.3,358.5,199,359.2,199,360.1z"/>
	<path class="st4" d="M306.7,368.7L158,368.8c-1.2,0-2.1-1-2.1-2.1l0,0v-89.9c0-1.2,1-2.1,2.1-2.1l0,0l148.8-0.1
		c1.2,0,2.1,1,2.1,2.1v90C308.8,367.8,307.9,368.7,306.7,368.7z"/>
	<path class="st3" d="M297.8,359.3c0,0.1-29.3,0.3-65.5,0.3s-65.5-0.1-65.5-0.2s29.3-0.3,65.5-0.3S297.8,359.1,297.8,359.3z"/>
	<path class="st3" d="M169.1,359.3c0,0.9-0.7,1.6-1.6,1.6c-0.9,0-1.7-0.7-1.7-1.6s0.7-1.6,1.6-1.6l0,0
		C168.4,357.7,169.1,358.4,169.1,359.3z"/>
	<g>
		<path class="st5" d="M235.2,322.7c0.1-0.2,0.3-0.4,0.4-0.5c0.4-0.4,0.8-0.8,1.3-1.3c1.1-1.1,2.7-2.6,4.4-4.2l0,0v0.2
			c-1.8-1.6-3.3-3.1-4.4-4.2l-1.3-1.3c-0.2-0.1-0.3-0.3-0.5-0.5c0.2,0.1,0.4,0.3,0.5,0.4l1.4,1.2c1.2,1,2.7,2.5,4.5,4.1l0.1,0.1
			l-0.1,0.1l0,0c-1.8,1.6-3.3,3.1-4.5,4.2l-1.4,1.2C235.6,322.4,235.4,322.6,235.2,322.7z"/>
		<path class="st5" d="M221.8,310.9c-0.1,0.2-0.3,0.4-0.4,0.5l-1.3,1.3c-1.1,1.1-2.7,2.6-4.4,4.2l0,0v-0.2c1.8,1.6,3.3,3.1,4.4,4.2
			l1.3,1.3c0.2,0.1,0.3,0.3,0.5,0.5c-0.2-0.1-0.4-0.3-0.5-0.4c-0.4-0.3-0.8-0.7-1.4-1.2c-1.2-1-2.7-2.5-4.5-4.1l-0.1-0.1l0.1-0.1
			l0,0c1.8-1.6,3.3-3.1,4.5-4.2l1.4-1.2C221.4,311.1,221.6,311,221.8,310.9z"/>
		<path class="st5" d="M225.2,325.5c-0.1,0,1.3-4,3.2-8.8c1.8-4.8,3.4-8.8,3.4-8.7c0.1,0-1.3,4-3.2,8.8S225.3,325.5,225.2,325.5z"/>
	</g>
	<path class="st0" d="M166.1,314.9h83.5c1.2,0,2.1,1,2.1,2.1v49.8c0,1.2-1,2.1-2.1,2.1h-83.5c-1.2,0-2.1-1-2.1-2.1V317
		C164,315.9,164.9,314.9,166.1,314.9z"/>
	<path class="st3" d="M245.4,363.6c0,0.1-16.8,0.3-37.6,0.3s-37.6-0.1-37.6-0.2s16.8-0.3,37.6-0.3S245.4,363.4,245.4,363.6z"/>
	<path class="st3" d="M171.6,363.6c0,0.5-0.4,0.9-1,0.9c-0.5,0-0.9-0.4-0.9-1c0-0.5,0.4-0.9,1-0.9l0,0
		C171.2,362.6,171.6,363.1,171.6,363.6z"/>
</g>
<g id="freepik--Screen--inject-35">
	<rect y="1.3" class="st3" width="393.2" height="250.5"/>
	<path class="st1" d="M393.5,250.8c0-1.9-0.1-96.8-0.2-250.5l0.2,0.2L0.3,0.6l0,0l0.3-0.3c0,88.7,0,173.4,0,250.5l-0.3-0.3
		L393.5,250.8L0.3,251.1H0v-0.3C0,173.7,0,89,0,0.3V0h0.3l393.2,0.1h0.2v0.2C393.6,154,393.5,248.9,393.5,250.8z"/>
	<path class="st1" d="M393.7,15.3c0,0.2-88.1,0.3-196.8,0.3S0,15.5,0,15.3S88.1,15,196.9,15S393.7,15.2,393.7,15.3z"/>
	<path class="st1" d="M13,6c0,1.4-1.1,2.5-2.5,2.5S7.9,7.5,7.9,6S9,3.5,10.4,3.5S13,4.6,13,6L13,6z"/>
	<path class="st1" d="M20.8,6c0,1.4-1.1,2.5-2.5,2.5s-2.6-1-2.6-2.5s1.1-2.5,2.5-2.5S20.8,4.6,20.8,6L20.8,6z"/>
	<path class="st1" d="M28.5,6c0,1.4-1.1,2.5-2.5,2.5s-2.5-1-2.5-2.5s1.1-2.5,2.5-2.5S28.5,4.6,28.5,6L28.5,6z"/>
	<rect x="26.4" y="150.3" class="st0" width="81.1" height="78.5"/>
	<g class="st6">
		<polygon points="32.7,222 55.1,181.7 73.4,207.5 84.6,193.8 101.2,222 		"/>
	</g>
	<g class="st6">
		<path d="M81.3,173.8c0,3.2-2.6,5.8-5.8,5.9c-3.2,0-5.8-2.6-5.9-5.8c0-3.2,2.6-5.8,5.8-5.9l0,0C78.6,168,81.3,170.6,81.3,173.8z"/>
	</g>
	<g class="st6">
		<path d="M101.2,222.3c0-0.1,0-0.2,0-0.3c0-0.2,0-0.5,0-0.9c0-0.8,0-2,0-3.5c0-3.1,0-7.6-0.1-13.3c0-11.5-0.1-27.8-0.2-47.4
			l0.3,0.3l-68.5,0.1l0.4-0.4v17.6c0,5.8,0,11.4,0,16.9c0,11,0,21.4,0,30.9l-0.3-0.3l49.5,0.2l14,0.1h3.7h1h0.3c-0.1,0-0.2,0-0.3,0
			h-0.9h-3.6l-13.9,0.1l-49.7,0.2h-0.3v-0.3c0-9.5,0-19.9,0-30.9c0-5.5,0-11.1,0-16.9V157l0.4-0.4h68.5h0.3v0.3
			c-0.1,19.7-0.1,36.1-0.2,47.6c0,5.7-0.1,10.2-0.1,13.2c0,1.5,0,2.6,0,3.5c0,0.4,0,0.6,0,0.9C101.4,222.1,101.3,222.2,101.2,222.3z
			"/>
	</g>
	<rect x="118.7" y="165.2" class="st0" width="54.9" height="2.8"/>
	<path class="st1" d="M192.7,177.1c0,0.2-16.5,0.3-36.8,0.3s-36.8-0.1-36.8-0.3s16.5-0.3,36.8-0.3S192.7,176.9,192.7,177.1z"/>
	<path class="st1" d="M192.7,184.8c0,0.2-16.5,0.3-36.8,0.3s-36.9-0.2-36.9-0.3s16.5-0.3,36.8-0.3S192.7,184.6,192.7,184.8z"/>
	<path class="st1" d="M192.7,192.5c0,0.2-16.5,0.3-36.8,0.3s-36.8-0.1-36.8-0.3s16.5-0.3,36.8-0.3S192.7,192.3,192.7,192.5z"/>
	<path class="st1" d="M192.7,200.2c0,0.1-16.5,0.3-36.8,0.3s-36.8-0.1-36.8-0.3s16.5-0.3,36.8-0.3S192.7,200,192.7,200.2z"/>
	<path class="st1" d="M192.7,207.9c0,0.1-16.5,0.3-36.8,0.3S119,208,119,207.9s16.5-0.3,36.8-0.3S192.7,207.7,192.7,207.9z"/>
	<path class="st1" d="M156.9,214.9c0,0.1-8.5,0.3-18.9,0.3s-18.9-0.1-18.9-0.3s8.5-0.3,18.9-0.3S156.9,214.8,156.9,214.9z"/>
	<rect x="296" y="160.6" class="st0" width="54.9" height="2.8"/>
	<path class="st1" d="M370,172.4c0,0.2-16.5,0.3-36.8,0.3s-36.8-0.1-36.8-0.3s16.5-0.3,36.8-0.3S370,172.3,370,172.4z"/>
	<path class="st1" d="M370,180.1c0,0.2-16.5,0.3-36.8,0.3s-36.8-0.1-36.8-0.3s16.5-0.3,36.8-0.3S370,180,370,180.1z"/>
	<path class="st1" d="M370,187.8c0,0.1-16.5,0.3-36.8,0.3s-36.8-0.1-36.8-0.3s16.5-0.3,36.8-0.3S370,187.7,370,187.8z"/>
	<path class="st1" d="M370,195.5c0,0.1-16.5,0.3-36.8,0.3s-36.8-0.1-36.8-0.3s16.5-0.3,36.8-0.3S370,195.4,370,195.5z"/>
	<path class="st1" d="M370,203.2c0,0.2-16.5,0.3-36.8,0.3s-36.8-0.1-36.8-0.3s16.5-0.3,36.8-0.3S370,203.1,370,203.2z"/>
	<path class="st1" d="M334.2,210.3c0,0.1-8.5,0.3-18.9,0.3s-18.9-0.1-18.9-0.3s8.5-0.3,18.9-0.3S334.2,210.1,334.2,210.3z"/>
	<path class="st1" d="M284.7,231.4c0.9-0.3,1.8-0.4,2.7-0.3c-0.6,0.6-0.2,0.2-0.3,0.3l0,0v-0.5v-0.5c0-0.3,0-0.6,0.1-0.9
		c0-0.5,0.1-0.8,0.2-0.8s0.1,0.3,0.2,0.8c0,0.3,0,0.5,0.1,0.9v1l0,0l-0.3,0.3C286.5,231.8,285.6,231.7,284.7,231.4z"/>
	<path class="st1" d="M273,231.4c1.9-0.4,3.9-0.4,5.8,0C276.9,231.8,274.9,231.8,273,231.4z"/>
	<path class="st1" d="M261.4,231.4c1.9-0.4,3.9-0.4,5.8,0C265.3,231.8,263.3,231.8,261.4,231.4z"/>
	<path class="st1" d="M249.8,231.4c1.9-0.4,3.9-0.4,5.8,0C253.7,231.8,251.7,231.8,249.8,231.4z"/>
	<path class="st1" d="M238.1,231.4c1.9-0.4,3.9-0.4,5.8,0C242,231.8,240.1,231.8,238.1,231.4z"/>
	<path class="st1" d="M226.5,231.4c1.9-0.4,3.9-0.4,5.8,0C230.4,231.8,228.4,231.8,226.5,231.4z"/>
	<path class="st1" d="M214.8,231.4c1.9-0.4,3.9-0.4,5.8,0C218.7,231.8,216.8,231.8,214.8,231.4z"/>
	<path class="st1" d="M206.3,228.7c0.3,0.9,0.4,1.8,0.3,2.7l-0.3-0.3h1.1l0.9,0.1c0.5,0.1,0.8,0.1,0.8,0.2s-0.3,0.1-0.8,0.2
		l-0.9,0.1h-1.1c-0.1-0.1,0.3,0.3-0.3-0.3C205.9,230.5,206,229.6,206.3,228.7z"/>
	<path class="st1" d="M206.3,217.5c0.4,1.9,0.4,3.8,0,5.6C205.9,221.2,205.9,219.3,206.3,217.5z"/>
	<path class="st1" d="M206.3,206.2c0.4,1.9,0.4,3.8,0,5.6C205.9,210,205.9,208.1,206.3,206.2z"/>
	<path class="st1" d="M206.3,195c0.4,1.9,0.4,3.8,0,5.6c-0.3-0.9-0.4-1.9-0.3-2.8C205.9,196.9,206,195.9,206.3,195z"/>
	<path class="st1" d="M206.3,183.8c0.4,1.9,0.4,3.8,0,5.6C205.9,187.5,205.9,185.6,206.3,183.8z"/>
	<path class="st1" d="M206.3,172.5c0.4,1.9,0.4,3.8,0,5.6c-0.3-0.9-0.4-1.9-0.3-2.8C205.9,174.4,206,173.4,206.3,172.5z"/>
	<path class="st1" d="M206.3,161.3c0.4,1.9,0.4,3.8,0,5.6C205.9,165.1,205.9,163.1,206.3,161.3z"/>
	<path class="st1" d="M209,153c-0.9,0.3-1.8,0.4-2.7,0.3l0.3-0.3l0,0v0.5v0.5c0,0.3,0,0.6-0.1,0.9c0,0.5-0.1,0.8-0.2,0.8
		s-0.1-0.3-0.2-0.8c0-0.2,0-0.5-0.1-0.9s0-0.4,0-0.5V153l0,0l0.3-0.3C207.2,152.6,208.1,152.7,209,153z"/>
	<path class="st1" d="M220.7,153c-1.9,0.4-3.9,0.4-5.8,0C216.8,152.6,218.7,152.6,220.7,153z"/>
	<path class="st1" d="M232.3,153c-1.9,0.4-3.9,0.4-5.8,0C228.4,152.6,230.4,152.6,232.3,153z"/>
	<path class="st1" d="M243.9,153c-1.9,0.4-3.9,0.4-5.8,0C240.1,152.6,242,152.6,243.9,153z"/>
	<path class="st1" d="M255.6,153c-1.9,0.4-3.9,0.4-5.8,0C251.7,152.6,253.7,152.6,255.6,153z"/>
	<path class="st1" d="M267.2,153c-1.9,0.4-3.9,0.4-5.8,0C263.3,152.6,265.3,152.6,267.2,153z"/>
	<path class="st1" d="M278.9,153c-1.9,0.4-3.9,0.4-5.8,0C275,152.6,276.9,152.6,278.9,153z"/>
	<path class="st1" d="M287.4,155.7c-0.3-0.9-0.4-1.8-0.3-2.7l0.3,0.3h-0.5h-0.5c-0.3,0-0.6,0-0.9-0.1c-0.5,0-0.8-0.1-0.8-0.2
		s0.3-0.1,0.8-0.2c0.3,0,0.5,0,0.9-0.1h0.5h0.5l0.3,0.3C287.8,153.9,287.7,154.8,287.4,155.7z"/>
	<path class="st1" d="M287.4,166.9c-0.4-1.9-0.4-3.8,0-5.6C287.8,163.1,287.8,165,287.4,166.9z"/>
	<path class="st1" d="M287.4,178.1c-0.4-1.9-0.4-3.8,0-5.6c0.3,0.9,0.4,1.9,0.3,2.8C287.8,176.3,287.7,177.2,287.4,178.1z"/>
	<path class="st1" d="M287.4,189.4c-0.4-1.9-0.4-3.8,0-5.6C287.8,185.6,287.8,187.5,287.4,189.4z"/>
	<path class="st1" d="M287.4,200.6c-0.4-1.9-0.4-3.8,0-5.6c0.3,0.9,0.4,1.9,0.3,2.8C287.8,198.7,287.7,199.7,287.4,200.6z"/>
	<path class="st1" d="M287.4,211.9c-0.4-1.9-0.4-3.8,0-5.6C287.8,208.1,287.8,210,287.4,211.9z"/>
	<path class="st1" d="M287.4,223.1c-0.4-1.9-0.4-3.8,0-5.6C287.8,219.3,287.8,221.2,287.4,223.1z"/>
	<path class="st0" d="M262.5,78.3c0,0,0-0.2,0-0.6s0-1,0-1.7c0-1.5,0-3.6,0-6.3c0-5.4-0.1-13.3-0.1-22.8l0.2,0.2l-50.9,0.1
		c-0.1,0.1,0.5-0.5,0.2-0.3l0,0v16.2c0,5.2,0,10.3,0,15.1l-0.2-0.2l36.6,0.1l10.5,0.1h2.8h0.7C262.4,78.2,262.5,78.2,262.5,78.3
		l-0.9-0.1h-2.8l-10.5,0.1l-36.8,0.1h-0.2v-0.2c0-4.8,0-9.9,0-15.1v-8c0-1.4,0-2.7,0-4.1v-4l0,0c-0.2,0.2,0.3-0.3,0.3-0.3l50.9,0.1
		h0.2V47c0,9.6-0.1,17.5-0.1,22.9c0,2.7,0,4.8,0,6.2c0,0.7,0,1.2,0,1.6S262.5,78.3,262.5,78.3z"/>
	<path class="st0" d="M258.8,75.1c0,0.1-9.8,0.3-21.8,0.3s-21.8-0.1-21.8-0.3s9.8-0.2,21.8-0.2S258.8,75,258.8,75.1z"/>
	<circle class="st0" cx="215.5" cy="75.1" r="0.5"/>
	<rect x="274" y="50.6" class="st0" width="54.9" height="2.8"/>
	<path class="st1" d="M347.9,62.4c0,0.1-16.5,0.3-36.8,0.3s-36.8-0.1-36.8-0.3s16.5-0.3,36.8-0.3S347.9,62.2,347.9,62.4z"/>
	<path class="st1" d="M347.9,70.1c0,0.2-16.5,0.3-36.8,0.3s-36.8-0.1-36.8-0.3s16.5-0.3,36.8-0.3S347.9,69.9,347.9,70.1z"/>
	<path class="st0" d="M262.5,124.3c0,0,0-0.2,0-0.6s0-0.9,0-1.7c0-1.5,0-3.6,0-6.3c0-5.4-0.1-13.3-0.1-22.8l0.2,0.2l-50.9,0.1
		c-0.1,0,0.5-0.5,0.2-0.3l0,0v16.2c0,5.2,0,10.3,0,15.1l-0.2-0.2l36.6,0.1l10.5,0.1h2.8h0.7L262.5,124.3c0.1,0,0,0-0.2,0h-0.7h-2.8
		l-10.5,0.1l-36.8,0.1h-0.2v-0.2c0-4.8,0-9.9,0-15.1v-8c0-1.4,0-2.7,0-4.1V93l0,0c-0.2,0.2,0.3-0.3,0.3-0.3l50.9,0.1h0.2V93
		c0,9.6-0.1,17.5-0.1,22.9c0,2.7,0,4.8,0,6.3c0,0.7,0,1.2,0,1.6C262.6,123.9,262.6,124.1,262.5,124.3z"/>
	<path class="st0" d="M258.8,121.2c0,0.1-9.8,0.3-21.8,0.3s-21.8-0.1-21.8-0.3s9.8-0.3,21.8-0.3S258.8,121.1,258.8,121.2z"/>
	<circle class="st0" cx="215.5" cy="121.2" r="0.5"/>
	<rect x="274" y="96.6" class="st0" width="54.9" height="2.8"/>
	<path class="st1" d="M347.9,108.5c0,0.2-16.5,0.3-36.8,0.3s-36.8-0.1-36.8-0.3s16.5-0.3,36.8-0.3S347.9,108.3,347.9,108.5z"/>
	<path class="st1" d="M347.9,116.2c0,0.2-16.5,0.3-36.8,0.3s-36.8-0.1-36.8-0.3s16.5-0.3,36.8-0.3S347.9,116,347.9,116.2z"/>
	<path class="st7" d="M184.8,135.4c0.8-0.3,1.7-0.3,2.5-0.3l-0.3,0.3l0,0v-0.5v-0.5c0-0.3,0-0.6,0.1-0.8c0-0.4,0.1-0.7,0.2-0.7
		s0.1,0.3,0.2,0.7c0,0.2,0,0.5,0.1,0.8v1l0,0l-0.3,0.3C186.4,135.8,185.6,135.7,184.8,135.4z"/>
	<path class="st7" d="M174.8,135.4c1.6-0.3,3.4-0.3,5,0C178.2,135.7,176.4,135.7,174.8,135.4z"/>
	<path class="st7" d="M164.8,135.4c1.6-0.3,3.4-0.3,5,0C168.2,135.7,166.5,135.7,164.8,135.4z"/>
	<path class="st7" d="M154.8,135.4c1.6-0.3,3.4-0.3,5,0C158.2,135.7,156.5,135.7,154.8,135.4z"/>
	<path class="st7" d="M144.9,135.4c0.8-0.3,1.7-0.3,2.5-0.3c0.8-0.1,1.7,0,2.5,0.3c-0.8,0.3-1.7,0.3-2.5,0.3
		C146.5,135.7,145.7,135.6,144.9,135.4z"/>
	<path class="st7" d="M134.9,135.4c1.6-0.3,3.4-0.3,5,0C138.3,135.7,136.5,135.7,134.9,135.4z"/>
	<path class="st7" d="M124.9,135.4c1.6-0.3,3.4-0.3,5,0C128.3,135.7,126.6,135.7,124.9,135.4z"/>
	<path class="st7" d="M114.9,135.4c0.8-0.3,1.7-0.3,2.5-0.3c0.8-0.1,1.7,0,2.5,0.3c-0.8,0.3-1.7,0.3-2.5,0.3
		S115.8,135.6,114.9,135.4z"/>
	<path class="st7" d="M105,135.4c1.6-0.3,3.4-0.3,5,0C108.4,135.7,106.7,135.7,105,135.4z"/>
	<path class="st7" d="M95,135.4c1.6-0.3,3.4-0.3,5,0C98.4,135.7,96.7,135.7,95,135.4z"/>
	<path class="st7" d="M85,135.4c1.6-0.3,3.4-0.3,5,0C88.4,135.7,86.7,135.7,85,135.4z"/>
	<path class="st7" d="M75.1,135.4c1.6-0.3,3.4-0.3,5,0C78.4,135.7,76.7,135.7,75.1,135.4z"/>
	<path class="st7" d="M65.1,135.4c1.6-0.3,3.4-0.3,5,0C68.4,135.7,66.7,135.7,65.1,135.4z"/>
	<path class="st7" d="M55.1,135.4c0.8-0.3,1.7-0.3,2.5-0.3c0.8-0.1,1.7,0,2.5,0.3c-0.8,0.3-1.7,0.3-2.5,0.3S55.9,135.6,55.1,135.4z"
		/>
	<path class="st7" d="M45.1,135.4c0.8-0.3,1.7-0.3,2.5-0.3c0.8-0.1,1.7,0,2.5,0.3c-0.8,0.3-1.7,0.3-2.5,0.3S45.9,135.6,45.1,135.4z"
		/>
	<path class="st7" d="M35.2,135.4c0.8-0.3,1.7-0.3,2.5-0.3c0.8-0.1,1.7,0,2.5,0.3c-0.8,0.3-1.7,0.3-2.5,0.3
		C36.8,135.7,36,135.6,35.2,135.4z"/>
	<path class="st7" d="M27.7,132.9c0.3,0.8,0.3,1.7,0.3,2.5l-0.3-0.3h1c0.3,0,0.6,0,0.8,0.1c0.4,0,0.7,0.1,0.7,0.2s-0.3,0.1-0.7,0.2
		l-0.8,0.1h-0.5h-0.5l-0.3-0.3C27.4,134.5,27.4,133.7,27.7,132.9z"/>
	<path class="st7" d="M27.7,123.1c0.3,1.6,0.3,3.3,0,4.9C27.3,126.4,27.3,124.7,27.7,123.1z"/>
	<path class="st7" d="M27.7,113.2c0.3,1.6,0.3,3.3,0,4.9C27.3,116.5,27.3,114.9,27.7,113.2z"/>
	<path class="st7" d="M27.7,103.4c0.3,1.6,0.3,3.3,0,4.9C27.3,106.7,27.3,105,27.7,103.4z"/>
	<path class="st7" d="M27.7,93.6c0.3,1.6,0.3,3.3,0,4.9C27.3,96.9,27.3,95.2,27.7,93.6z"/>
	<path class="st7" d="M27.7,83.8c0.3,1.6,0.3,3.3,0,4.9C27.3,87.1,27.3,85.4,27.7,83.8z"/>
	<path class="st7" d="M27.7,74c0.3,1.6,0.3,3.3,0,4.9C27.3,77.3,27.3,75.6,27.7,74z"/>
	<path class="st7" d="M27.7,64.2c0.3,1.6,0.3,3.3,0,4.9C27.3,67.5,27.3,65.8,27.7,64.2z"/>
	<path class="st7" d="M27.7,54.3c0.3,1.6,0.3,3.3,0,4.9C27.3,57.6,27.3,56,27.7,54.3z"/>
	<path class="st7" d="M27.7,44.5c0.3,1.6,0.3,3.3,0,4.9C27.3,47.8,27.3,46.1,27.7,44.5z"/>
	<path class="st7" d="M30.2,37.1c-0.8,0.3-1.7,0.4-2.5,0.3c0.5-0.5,0.1-0.1,0.3-0.3l0,0v0.5c0,0.1,0,0.3,0,0.5s0,0.6-0.1,0.8
		c0,0.4-0.1,0.7-0.2,0.7s-0.1-0.3-0.2-0.7c0-0.2,0-0.5-0.1-0.8v-1l0,0c0.1-0.1-0.3,0.2,0.3-0.3C28.5,36.7,29.4,36.8,30.2,37.1z"/>
	<path class="st7" d="M40.1,37.1c-0.8,0.3-1.7,0.4-2.5,0.3c-0.8,0.1-1.7,0-2.5-0.3c0.8-0.3,1.7-0.3,2.5-0.3
		C38.5,36.8,39.3,36.9,40.1,37.1z"/>
	<path class="st7" d="M50.1,37.1c-0.8,0.3-1.7,0.4-2.5,0.3c-0.8,0.1-1.7,0-2.5-0.3c0.8-0.3,1.7-0.3,2.5-0.3
		C48.5,36.8,49.3,36.9,50.1,37.1z"/>
	<path class="st7" d="M60.1,37.1c-0.8,0.3-1.7,0.4-2.5,0.3c-0.8,0.1-1.7,0-2.5-0.3c0.8-0.3,1.7-0.3,2.5-0.3
		C58.4,36.8,59.3,36.9,60.1,37.1z"/>
	<path class="st7" d="M70.1,37.1c-1.6,0.4-3.4,0.4-5,0C66.7,36.8,68.4,36.8,70.1,37.1z"/>
	<path class="st7" d="M80,37.1c-1.6,0.4-3.4,0.4-5,0C76.7,36.8,78.4,36.8,80,37.1z"/>
	<path class="st7" d="M90,37.1c-1.6,0.4-3.4,0.4-5,0C86.7,36.8,88.4,36.8,90,37.1z"/>
	<path class="st7" d="M100,37.1c-1.6,0.4-3.4,0.4-5,0C96.7,36.8,98.4,36.8,100,37.1z"/>
	<path class="st7" d="M110,37.1c-1.6,0.4-3.4,0.4-5,0C106.7,36.8,108.4,36.8,110,37.1z"/>
	<path class="st7" d="M119.9,37.1c-0.8,0.3-1.7,0.4-2.5,0.3c-0.8,0.1-1.7,0-2.5-0.3c0.8-0.3,1.7-0.3,2.5-0.3
		C118.3,36.8,119.1,36.9,119.9,37.1z"/>
	<path class="st7" d="M129.9,37.1c-1.6,0.4-3.4,0.4-5,0C126.6,36.8,128.3,36.8,129.9,37.1z"/>
	<path class="st7" d="M139.9,37.1c-1.6,0.4-3.4,0.4-5,0C136.5,36.8,138.2,36.8,139.9,37.1z"/>
	<path class="st7" d="M149.9,37.1c-0.8,0.3-1.7,0.4-2.5,0.3c-0.8,0.1-1.7,0-2.5-0.3c0.8-0.3,1.7-0.3,2.5-0.3S149.1,36.9,149.9,37.1z
		"/>
	<path class="st7" d="M159.8,37.1c-1.6,0.4-3.4,0.4-5,0C156.5,36.8,158.2,36.8,159.8,37.1z"/>
	<path class="st7" d="M169.8,37.1c-1.6,0.4-3.4,0.4-5,0C166.5,36.8,168.2,36.8,169.8,37.1z"/>
	<path class="st7" d="M179.8,37.1c-1.6,0.4-3.4,0.4-5,0C176.4,36.8,178.1,36.8,179.8,37.1z"/>
	<path class="st7" d="M187.3,39.6c-0.3-0.8-0.3-1.7-0.3-2.5c0.5,0.5,0.1,0.1,0.3,0.3h-0.5h-0.5h-0.8c-0.4-0.1-0.7-0.1-0.7-0.2
		s0.3-0.1,0.7-0.2l0.8-0.1h1c0.1,0.1-0.3-0.3,0.3,0.3C187.6,38,187.5,38.8,187.3,39.6z"/>
	<path class="st7" d="M187.3,49.4c-0.3-1.6-0.3-3.3,0-4.9C187.6,46.1,187.6,47.8,187.3,49.4z"/>
	<path class="st7" d="M187.3,59.2c-0.3-1.6-0.3-3.3,0-4.9C187.6,56,187.6,57.6,187.3,59.2z"/>
	<path class="st7" d="M187.3,69.1c-0.3-1.6-0.3-3.3,0-4.9C187.6,65.8,187.6,67.5,187.3,69.1z"/>
	<path class="st7" d="M187.3,78.9c-0.3-1.6-0.3-3.3,0-4.9C187.6,75.6,187.6,77.3,187.3,78.9z"/>
	<path class="st7" d="M187.3,88.7c-0.3-1.6-0.3-3.3,0-4.9C187.6,85.4,187.6,87.1,187.3,88.7z"/>
	<path class="st7" d="M187.3,98.5c-0.3-1.6-0.3-3.3,0-4.9C187.6,95.2,187.6,96.9,187.3,98.5z"/>
	<path class="st7" d="M187.3,108.3c-0.3-1.6-0.3-3.3,0-4.9C187.6,105,187.6,106.7,187.3,108.3z"/>
	<path class="st7" d="M187.3,118.2c-0.3-0.8-0.3-1.6-0.3-2.5c-0.1-0.8,0-1.7,0.3-2.4c0.3,0.8,0.3,1.6,0.3,2.4
		S187.5,117.4,187.3,118.2z"/>
	<path class="st7" d="M187.3,128c-0.3-1.6-0.3-3.3,0-4.9C187.6,124.7,187.6,126.4,187.3,128z"/>
	<g>
		<path class="st8" d="M241.5,65.9c0.1-0.1,0.2-0.2,0.3-0.3c0.2-0.2,0.5-0.5,0.8-0.8c0.7-0.7,1.7-1.7,2.8-2.7l0,0v0.1
			c-1.1-1-2.1-2-2.8-2.7l-0.8-0.8c-0.1-0.1-0.2-0.2-0.3-0.3c0.1,0.1,0.2,0.2,0.3,0.3l0.9,0.8c0.7,0.7,1.8,1.6,2.9,2.6l0.1,0.1
			l-0.1,0.1l0,0c-1.1,1.1-2.1,2-2.9,2.7l-0.9,0.8C241.8,65.8,241.7,65.9,241.5,65.9z"/>
		<path class="st8" d="M232.9,58.4c-0.1,0.1-0.2,0.2-0.3,0.3l-0.8,0.8c-0.7,0.7-1.7,1.7-2.8,2.7l0,0v-0.1c1.1,1,2.1,2,2.8,2.7
			l0.8,0.8c0.1,0.1,0.2,0.2,0.3,0.3c-0.1-0.1-0.2-0.2-0.3-0.3c-0.2-0.2-0.5-0.5-0.9-0.8c-0.7-0.7-1.8-1.6-2.9-2.6l-0.1-0.1l0.1-0.1
			l0,0c1.1-1.1,2.1-2,2.9-2.7l0.9-0.8C232.7,58.5,232.8,58.4,232.9,58.4z"/>
		<path class="st8" d="M235.1,67.7c0,0,0.9-2.6,2-5.7c1.2-3.1,2.2-5.6,2.2-5.6c0.1,0-0.9,2.6-2,5.7
			C236.2,65.2,235.2,67.8,235.1,67.7z"/>
	</g>
	<g>
		<path class="st8" d="M241.5,112.1c0.1-0.1,0.2-0.2,0.3-0.3c0.2-0.2,0.5-0.5,0.8-0.8c0.7-0.7,1.7-1.7,2.8-2.7l0,0v0.1
			c-1.1-1-2.1-2-2.8-2.7l-0.8-0.8c-0.1-0.1-0.2-0.2-0.3-0.3c0.1,0.1,0.2,0.2,0.3,0.3l0.9,0.8c0.7,0.7,1.8,1.6,2.9,2.6l0.1,0.1
			l-0.1,0.1l0,0c-1.1,1.1-2.1,2-2.9,2.7l-0.9,0.8C241.8,111.9,241.7,112,241.5,112.1z"/>
		<path class="st8" d="M232.9,104.5c-0.1,0.1-0.2,0.2-0.3,0.3l-0.8,0.8c-0.7,0.7-1.7,1.7-2.8,2.7l0,0v-0.1c1.1,1,2.1,2,2.8,2.7
			l0.8,0.8c0.1,0.1,0.2,0.2,0.3,0.3c-0.1-0.1-0.2-0.2-0.3-0.3c-0.2-0.2-0.5-0.5-0.9-0.8c-0.7-0.7-1.8-1.6-2.9-2.6l-0.1-0.1l0.1-0.1
			l0,0c1.1-1.1,2.1-2,2.9-2.7l0.9-0.8C232.7,104.7,232.8,104.6,232.9,104.5z"/>
		<path class="st8" d="M235.1,113.9c0,0,0.9-2.6,2-5.7c1.2-3.1,2.2-5.6,2.2-5.6c0.1,0-0.9,2.6-2,5.7
			C236.1,111.4,235.2,113.9,235.1,113.9z"/>
	</g>
</g>
<g id="freepik--Character--inject-35">
	<path class="st0" d="M175.8,134.6l-155.1,8.5c-1.2,0.1-2.2-0.8-2.2-2l-5.1-93.9c-0.1-1.2,0.8-2.2,2-2.2l155.1-8.5
		c1.2-0.1,2.2,0.8,2.2,2l5.1,93.9C177.8,133.5,176.9,134.5,175.8,134.6L175.8,134.6z"/>
	<path class="st3" d="M165.8,125.3c0,0.1-30.5,1.9-68.2,4c-37.7,2.1-68.2,3.6-68.2,3.5s30.5-1.9,68.2-4S165.8,125.2,165.8,125.3z"/>
	<path class="st3" d="M31.9,132.7c0,0.9-0.7,1.8-1.6,1.8s-1.8-0.7-1.8-1.6c0-0.9,0.7-1.8,1.6-1.8C31,131,31.8,131.7,31.9,132.7
		L31.9,132.7z"/>
	<g class="st6">
		<path d="M162.1,37.1c-2.5,4.8-5,10.2-3.3,15.3c0.8,2.3,2.4,4.3,3.6,6.4c3.7,6.6,3.6,14.5,3.4,22.1c-0.1,2.1-0.2,4.5-1.9,5.9
			c-1.3,1.1-3.2,1.3-5,1.3L137.8,89v37.1l39.1-8.7l-1.8-55.5l-1-9.4l-3.9-16L162.1,37.1z"/>
	</g>
	<polygon class="st0" points="128.5,337.5 129.9,368.8 146.8,368.4 145.5,337 	"/>
	<path class="st1" d="M138.2,367.4c0.1,0-0.1-6.9-0.6-15.3s-1-15.3-1.1-15.3s0.1,6.9,0.6,15.3S138,367.5,138.2,367.4z"/>
	<polygon class="st7" points="129.8,366.7 146.7,366.2 146.8,368.4 129.9,368.8 	"/>
	<path class="st1" d="M146.4,358.4c0,0-0.1-0.3-0.5-0.7c-1.2-1.4-2.7-2.5-4.4-3.2c-1.3-0.5-2.6-0.8-4-0.7c-2.5,0.1-4.8,1.3-6.5,3.2
		c-0.5,0.6-0.9,1.2-1.1,1.9c-0.1,0.2-0.2,0.5-0.2,0.8c0.5-0.9,1-1.7,1.7-2.4c1.6-1.7,3.8-2.8,6.2-2.9c2.4,0,4.7,0.7,6.6,2.2
		C145.6,357.6,146.3,358.5,146.4,358.4z"/>
	<g class="st6">
		<polygon points="145.9,346 146,349.4 129.1,349.7 128.9,347.1 		"/>
	</g>
	<path class="st0" d="M87.6,338.3l0.9,19.6c0,0-19.6,7.5-19.9,11.1l38.1-0.3l-0.1-30.6L87.6,338.3z"/>
	<path class="st7" d="M100,356.2c0.8,0.2,1.2,1,1.1,1.8c-0.2,0.8-1,1.3-1.8,1.1c-0.8-0.2-1.3-1.1-1.1-1.9c0.3-0.8,1.2-1.2,1.9-0.9"
		/>
	<path class="st7" d="M106.7,368.7v-3.1L69.8,367c0,0-1.7,0.8-1.5,2L106.7,368.7z"/>
	<path class="st1" d="M88.1,358c0,0.2,1,0.3,1.9,0.9s1.4,1.4,1.6,1.3s-0.1-1.2-1.2-1.9S88.1,357.9,88.1,358z"/>
	<path class="st1" d="M84.1,359.7c0,0.2,0.8,0.5,1.4,1.3s0.8,1.6,1,1.6s0.3-1.1-0.5-2S84.1,359.5,84.1,359.7z"/>
	<path class="st1" d="M81.8,364.6c0.2,0,0.4-0.9-0.1-1.9s-1.4-1.4-1.4-1.3s0.5,0.7,0.9,1.5S81.7,364.5,81.8,364.6z"/>
	<path class="st1" d="M88.4,353.5c0.1,0.2,0.9-0.1,2,0s1.9,0.4,2,0.2s-0.7-0.8-1.9-0.9S88.3,353.4,88.4,353.5z"/>
	<path class="st1" d="M87.7,349.3c0.6,0.2,1.3,0.2,1.9,0c0.7-0.1,1.4-0.3,2-0.6c0.4-0.2,0.7-0.4,1.1-0.6c0.2-0.1,0.4-0.3,0.6-0.5
		c0.3-0.3,0.3-0.7,0.1-1c-0.2-0.3-0.5-0.4-0.8-0.4c-0.2,0-0.5,0-0.7,0.1c-0.4,0.1-0.8,0.2-1.2,0.4c-0.6,0.3-1.2,0.7-1.8,1.2
		c-0.9,0.8-1.2,1.5-1.1,1.6s0.5-0.5,1.4-1.2c0.5-0.4,1.1-0.7,1.7-1c0.4-0.1,0.7-0.3,1.1-0.3c0.4-0.1,0.8-0.1,0.9,0.1s0,0.1,0,0.2
		c-0.1,0.1-0.3,0.2-0.4,0.3c-0.3,0.2-0.7,0.4-1,0.6c-0.6,0.3-1.2,0.5-1.9,0.7C88.9,348.9,88.3,349.1,87.7,349.3z"/>
	<path class="st1" d="M87.9,349.6c0.4-0.6,0.5-1.2,0.5-1.9c0-0.7-0.1-1.4-0.3-2.1c-0.1-0.4-0.3-0.8-0.5-1.2c-0.2-0.5-0.7-0.9-1.2-1
		c-0.3,0-0.7,0.2-0.8,0.5c-0.1,0.2-0.2,0.5-0.2,0.7c-0.1,0.4-0.1,0.9,0,1.3c0.1,0.7,0.4,1.4,0.8,2c0.8,1,1.5,1.2,1.6,1.1
		s-0.6-0.5-1.2-1.4c-0.4-0.5-0.6-1.2-0.7-1.8c0-0.4,0-0.7,0-1.1c0.1-0.4,0.2-0.7,0.4-0.7s0.5,0.3,0.7,0.6c0.2,0.3,0.4,0.7,0.5,1
		c0.2,0.6,0.4,1.3,0.4,1.9C88,348.8,87.8,349.5,87.9,349.6z"/>
	<g class="st6">
		<polygon points="106.7,349.9 106.7,354.2 88.3,354.2 88.3,351.8 		"/>
	</g>
	<path class="st9" d="M163.7,40.1c-0.4,0-1.5,4.3-2.1,6.5c-0.2,0.8-0.1,1.6,0.3,2.4l4.4,7.8c0.8,1.4,2,2.6,3.5,3.5l2.2,1.2l0.3,4.6
		l12.4,0.2l-3.8-14.5l-1.6-8.8c-0.4-0.9-1.3-1.5-2.2-1.6l-1.2-0.2l-0.4-1.1c-0.3-0.6-0.8-1.1-1.5-1.2l-0.7-0.1l-1-2.5
		c-0.3-0.8-1.1-1.3-2-1.4l-6,0.1c0,0-1.3,1.8,1.7,2.6c0.8,0.2,1.7,0.3,2.6,0.3l1.4,5.4c0,0,1,5.7-1.7,5.7c-2.3,0-2.6-3.1-2.6-3.1
		S166.8,39.8,163.7,40.1z"/>
	<path class="st10" d="M176,45.6c-0.1-0.4-0.1-0.8-0.2-1.1c-0.3-0.9-0.9-1.6-1.7-2.1c-0.4-0.9-0.7-1.8-0.9-2.7
		c-0.1-0.4-0.2-0.8-0.1-1.2c0,0,0.1,0.4,0.3,1.1c0.2,0.9,0.6,1.8,0.9,2.6l0.6,0.5c0.2,0.2,0.4,0.4,0.5,0.6c0.3,0.4,0.4,0.7,0.6,1.2
		c0.1,0.3,0.1,0.6,0.1,0.9C176,45.3,176,45.5,176,45.6z"/>
	<path class="st10" d="M177.9,44.5c0-0.2-0.1-0.4-0.2-0.6c-0.2-0.4-0.7-0.7-1.1-0.8h-0.1V43l-0.1-0.2c-0.3-0.7-0.5-1.5-0.7-2.2
		c0.4,0.7,0.7,1.4,0.9,2.2l0.1,0.2l-0.1-0.1c0.6,0.1,1,0.4,1.3,0.9C178,44.3,177.9,44.5,177.9,44.5z"/>
	<path class="st10" d="M168.4,38c-0.1,0-0.3-0.3-0.2-0.7s0.3-0.7,0.3-0.6s-0.1,0.3-0.1,0.7S168.5,37.9,168.4,38z"/>
	<g>
		<path class="st5" d="M103.7,96.1c0.2-0.3,0.4-0.5,0.6-0.7c0.5-0.5,1.1-1.1,1.8-1.9c1.5-1.6,3.7-3.8,6-6.1l0.1-0.1l0,0.3
			c-2.5-2.2-4.8-4.2-6.4-5.7l-1.9-1.8c-0.2-0.2-0.5-0.4-0.7-0.7c0.3,0.2,0.5,0.3,0.8,0.6l2,1.7c1.7,1.4,4,3.4,6.5,5.6l0.2,0.2
			l-0.2,0.2l-0.1,0.1c-2.4,2.4-4.5,4.5-6.1,6l-1.9,1.8C104.2,95.7,104,95.9,103.7,96.1z"/>
		<path class="st5" d="M84.3,80c-0.2,0.3-0.4,0.5-0.6,0.7l-1.8,1.9c-1.5,1.6-3.6,3.8-6,6.1l-0.1,0.1l0-0.3c2.5,2.2,4.8,4.2,6.4,5.7
			l1.9,1.8c0.2,0.2,0.5,0.4,0.7,0.7c-0.3-0.2-0.5-0.3-0.8-0.6c-0.5-0.4-1.2-1-2-1.7c-1.7-1.4-4-3.4-6.5-5.6l-0.2-0.2l0.2-0.2
			l0.1-0.1c2.4-2.4,4.5-4.5,6.1-6l1.9-1.8C83.8,80.4,84.1,80.2,84.3,80z"/>
		<path class="st5" d="M89.8,100.4c-0.1,0,1.7-5.7,4.1-12.5c2.4-6.9,4.4-12.4,4.5-12.4c0.1,0-1.7,5.7-4.1,12.5
			C91.9,94.9,89.9,100.4,89.8,100.4z"/>
	</g>
	<path class="st9" d="M104.9,94.2l22.5-0.3l-2.5-19.2c0,0,1.5-0.3,1.6-8.7s0.5-22.5,0.5-22.5l0,0c-9.7-4.1-20.8-2.7-29.1,3.7l-1.2,1
		L104.9,94.2z"/>
	<path class="st9" d="M99.2,58.5c-0.1-0.1-5.7-1.7-5.6,4s5.9,4.3,5.9,4.2S99.2,58.5,99.2,58.5z"/>
	<path class="st9" d="M126,57.3c0.1-0.1,5.2-1.4,5,4.3s-5.9,4.3-5.9,4.2S126,57.3,126,57.3z"/>
	<path class="st1" d="M132.4,40.8c0.1-1.1-0.3-2.1-1.1-2.8c-0.9-0.6-2.1-0.5-2.8,0.2c0.3-1.4-0.6-2.7-1.9-3c-0.1,0-0.2,0-0.3,0
		c-1.4-0.1-2.5,0.9-3.8,1.3c-1.3,0.3-2.7,0.1-3.9-0.4c-1.2-0.5-2.4-1.2-3.6-1.6c-5.5-2-11.6,0.8-13.6,6.3c-1.9-0.5-3.9,0.3-5,1.9
		c-1.1,1.6-1.5,3.6-1.2,5.5c0.2,1.3,0.5,2.5,1,3.7c0,0.1,0,0.2,0,0.3c0.1,4.6,2.5,19.1,4.4,19.1c3.4,0.1,0.7-15.5,0.7-15.5
		c4.2-1.6,2.6-7.9,3.7-8.8s3.2-3.2,12,1.3c3.3,1.5,6.9,1.8,10.4,1.1h0.2h0.1h0.1c0.8-0.2,1.5-0.6,2.2-1c0.8-0.5,1.5-1.2,1.9-2.1
		c0.4-0.9,0.2-1.9-0.5-2.6C131.9,42.9,132.3,41.9,132.4,40.8z"/>
	<path class="st1" d="M97.4,57.9c0.9,4.8,0.7,7.3,1.5,10.5c1.2,5,3.8,8.9,8.3,11.4s10.7,2.5,14.6-1c2.7-2.4,4.6-5.1,5-8.7
		s0.8-9.9,0.8-13.5c0-6.5,0.5-12.7,0.5-12.7l-18.6-3.4l-10.6,6.3L97.4,57.9z"/>
	<path class="st1" d="M116.6,82.6c-1,0.4-2.2,0.5-3.3,0.3c-1.1,0-2.2-0.4-3.1-1c0.1-0.1,1.4,0.3,3.2,0.5S116.6,82.5,116.6,82.6z"/>
	<path class="st4" d="M121.4,39.7c-0.3,0.1-0.6,0.2-0.9,0.2c-0.8,0-1.6-0.2-2.4-0.6c-1.1-0.6-2.1-1.2-3-2c-1.1-0.9-2.5-1.6-3.9-1.8
		c-1.5-0.2-2.9,0.1-4.2,0.7c-1.1,0.6-1.9,1.4-2.6,2.4c-0.6,0.9-1,2-1.1,3.1c0-0.3,0-0.6,0.1-0.9c0.2-0.8,0.5-1.6,0.9-2.3
		c0.6-1.1,1.5-1.9,2.6-2.5c1.3-0.7,2.9-1,4.4-0.8s2.9,0.9,4,1.9c0.9,0.8,1.9,1.4,3,2c0.7,0.4,1.5,0.6,2.3,0.6
		C121.1,39.8,121.4,39.6,121.4,39.7z"/>
	<path class="st4" d="M103.5,42c-0.4-0.2-0.9-0.4-1.3-0.5c-1.1-0.3-2.3-0.1-3.3,0.5s-1.7,1.6-1.9,2.7c-0.1,0.5-0.1,0.9-0.1,1.4
		c0-0.1-0.1-0.3-0.1-0.4c0-0.4,0-0.7,0.1-1.1c0.4-2.3,2.7-3.9,5-3.4c0.1,0,0.3,0.1,0.4,0.1c0.4,0.1,0.7,0.2,1,0.4
		C103.4,41.8,103.5,41.9,103.5,42z"/>
	<path class="st4" d="M103,62.3c-1.2-1.8-2.1-3.9-2.6-6C101.6,58.2,102.5,60.2,103,62.3z"/>
	<path class="st4" d="M107.9,65.6c-1.1-0.6-2-1.5-2.6-2.6c-0.8-1-1.2-2.2-1.4-3.5c0.1,0,0.7,1.5,1.8,3.2S108,65.5,107.9,65.6z"/>
	<path class="st4" d="M112.7,66.7c-0.8-0.3-1.6-0.7-2.2-1.4c-1.1-1-1.8-1.9-1.7-2s0.9,0.7,2,1.6C111.9,65.8,112.8,66.5,112.7,66.7z"
		/>
	<path class="st4" d="M121.2,58.9c0.1,1,0,2-0.5,2.8c-0.3,0.9-0.9,1.8-1.6,2.4c0.3-0.9,0.7-1.7,1.2-2.6
		C120.5,60.7,120.8,59.8,121.2,58.9z"/>
	<path class="st4" d="M124,54.4c0.2,1.2,0.1,2.4-0.3,3.5c-0.3,1.2-0.8,2.2-1.7,3.1c-0.1-0.1,0.7-1.4,1.2-3.2S123.9,54.4,124,54.4z"
		/>
	<path class="st4" d="M126.3,42.9c-0.2,0.2-0.5,0.4-0.7,0.6c-0.7,0.4-1.6,0.7-2.4,0.8c-1.3,0.1-2.6-0.1-3.8-0.6
		c-1.4-0.6-2.8-1.3-4.2-2.1c-1.3-0.8-2.7-1.4-4.2-1.8c-1.2-0.3-2.5-0.3-3.7,0c-0.8,0.2-1.6,0.7-2.2,1.2c-0.4,0.4-0.6,0.7-0.6,0.7
		c0.1-0.3,0.3-0.5,0.5-0.8c0.6-0.6,1.4-1.1,2.2-1.3c1.2-0.4,2.5-0.4,3.8-0.1c1.5,0.4,2.9,1,4.3,1.8c1.3,0.8,2.7,1.5,4.1,2.1
		c1.2,0.5,2.4,0.7,3.7,0.6C124.2,44,125.3,43.6,126.3,42.9z"/>
	<path class="st4" d="M127.9,45.6c-0.1,0.1-0.2,0.1-0.3,0.2c-0.3,0.2-0.6,0.3-0.9,0.4c-2,0.9-4.3,1.1-6.4,0.6
		c-0.3-0.1-0.7-0.2-1-0.3c-0.2-0.1-0.3-0.1-0.3-0.1s0.5,0.1,1.3,0.3c1.1,0.2,2.1,0.2,3.2,0.1c1.1-0.1,2.1-0.3,3.1-0.7
		C127.4,45.8,127.9,45.6,127.9,45.6z"/>
	<polyline class="st1" points="117.5,217.9 123,270.7 126.9,350.1 147.9,350.1 148.5,181 88.4,185.3 76,274 86.8,351.7 109.8,351.7 
		104.4,277.9 117.5,217.9 	"/>
	<path class="st4" d="M117.5,217.9c-1.2,1.5-2.6,2.8-4.1,4c-1.4,1.3-2.8,2.6-4.4,3.6c1.2-1.5,2.6-2.8,4.1-4
		C114.5,220.2,116,219,117.5,217.9z"/>
	<path class="st4" d="M117.5,216.9c-0.1-2.3-0.1-4.5,0.1-6.8c0-2.3,0.1-4.5,0.4-6.8c0.3,2.3,0.3,4.5,0.1,6.8
		C118.1,212.4,117.9,214.7,117.5,216.9z"/>
	<path class="st4" d="M124.4,197.2c0.1,0,0.2,0,0.3,0l1-0.1l4-0.2l14.2-0.6h0.2v0.2c0,4.4,0,9.5,0,14.8v0.5l-0.2,0.1l-9.2,3.7h-0.1
		h-0.1l-8.2-2.8h-0.1v-0.1c-0.6-4.6-1.1-8.5-1.4-11.2c-0.2-1.3-0.3-2.3-0.4-3.1S124.4,197.2,124.4,197.2c0,0.2,0,0.3,0.1,0.4
		c0,0.2,0.1,0.5,0.1,0.8c0.1,0.8,0.3,1.8,0.5,3.1c0.4,2.7,1,6.5,1.7,11l-0.1-0.2l8.2,2.8h-0.2l9.2-3.7l-0.2,0.2v-0.3
		c0-5.3,0-10.3,0-14.8l0.2,0.2l-14.1,0.4l-4,0.1H124.4L124.4,197.2z"/>
	<path class="st4" d="M94.1,197.4c0.1,0,0.2,0,0.3,0h0.9l3.6-0.1l13-0.3h0.2v0.2c-0.1,4.4-0.3,9.4-0.5,14.8v0.1l-0.1,0.1l-1.5,1
		l-7.6,5l-0.1,0.1l-0.1-0.1l-8.6-5.4l-0.1-0.1v-0.1c0.2-4.6,0.3-8.4,0.4-11.2c0.1-1.3,0.1-2.3,0.1-3.1
		C94.1,198.1,94.1,197.8,94.1,197.4c0,0.1,0,0.2,0,0.3v0.8c0,0.8,0,1.8,0,3.1c0,2.7-0.1,6.5-0.2,11l-0.1-0.2l8.6,5.1h-0.3l7.6-5
		l1.5-1l-0.1,0.2c0.2-5.4,0.4-10.4,0.5-14.8l0.2,0.2L99,197.2h-4.6L94.1,197.4z"/>
	<path class="st4" d="M142,221.3c-0.9,0.1-1.9,0-2.8-0.1c-1.8-0.1-4.2-0.4-6.8-0.7s-5.1-0.7-6.8-1c-0.9-0.1-1.9-0.3-2.8-0.6
		c0.9,0,1.9,0.1,2.8,0.3l6.8,0.9l6.8,0.9C140.2,220.9,141.1,221.1,142,221.3z"/>
	<path class="st4" d="M141.5,280.1c0,0-0.1,0.3-0.5,0.7c-0.6,0.5-1.4,0.7-2.1,0.7c-1.1,0-2.3-0.5-3.1-1.2c-1-0.9-2-1.8-2.9-2.9
		c-1.6-1.9-3-3.9-4.2-6c-0.5-0.9-1-1.8-1.3-2.7c0.6,0.8,1.1,1.7,1.6,2.5c1.3,2,2.8,4,4.3,5.8c0.8,1,1.8,2,2.8,2.9
		c0.8,0.7,1.8,1.1,2.8,1.2c0.7,0,1.4-0.1,2-0.5C141.3,280.4,141.5,280.1,141.5,280.1z"/>
	<path class="st4" d="M100.1,282c0,0,0,0.3-0.3,0.7c-0.4,0.6-0.9,1-1.4,1.4c-0.9,0.5-1.9,0.8-2.9,0.8c-1.2,0-2.4-0.4-3.5-1.1
		c-1.8-1.3-3.3-3-4.2-5c-0.4-0.8-0.8-1.6-1-2.5c0.5,0.7,1,1.5,1.4,2.3c1,1.9,2.4,3.5,4.1,4.7c1,0.6,2.1,1,3.2,1.1
		c0.9,0,1.9-0.2,2.7-0.6C99,283.3,99.6,282.7,100.1,282z"/>
	<path class="st4" d="M101.4,274c-0.5,0.4-1.1,0.8-1.7,1c-1.5,0.6-3.1,0.9-4.7,1s-3.2-0.1-4.8-0.6c-0.6-0.2-1.3-0.5-1.8-0.9
		c2.1,0.7,4.3,1,6.5,1C97.2,275.4,99.4,274.9,101.4,274z"/>
	<path class="st4" d="M169.7,87.8h-30.6c0,0-4.2-2.4-6.2-2c-1.5,0.5-2.8,1.4-3.8,2.6l4.1,33.7l9.9-7.3L180,111
		c3.2,0,6.2-1.4,8.4-3.7l0,0c2.4-2.5,3.5-6,3.1-9.4l-6.8-36.2l-14,0.5l-0.6,9.2L169.7,87.8z"/>
	<path class="st4" d="M85.5,96.3c-3.3,2-5.9,5-7.4,8.6c-1.8,4.3-14,25.7-20.4,36.8c-2.3,4.1-1.7,9.2,1.5,12.6l0,0
		c3.9,4.1,10.4,5.2,16.1,3.3c2.6-0.8,12.8-9.1,12.8-9.1L85.5,96.3z"/>
	<polygon class="st4" points="90.8,172.7 83.8,112.4 85.5,96.3 103.4,88.7 126.5,87.2 148.5,89.6 143.3,151.5 149,186.4 87.3,189.1 
			"/>
	<path class="st1" d="M90.8,172.4c-0.1,0-1.8-13.4-3.8-30s-3.4-30-3.2-30.1s1.8,13.4,3.8,30S91,172.4,90.8,172.4z"/>
	<path class="st1" d="M148,103.1c0,0.2,0,0.4,0,0.6c0,0.4-0.1,0.9-0.1,1.6c-0.1,1.4-0.3,3.3-0.6,5.7c-0.5,4.9-1.1,11.5-1.9,18.8
		c-0.8,7.3-1.3,14-1.6,18.8c-0.2,2.4-0.3,4.3-0.4,5.7c0,0.6-0.1,1.1-0.1,1.5c0,0.2,0,0.4-0.1,0.5c0-0.2,0-0.4,0-0.5
		c0-0.4,0-0.9,0-1.6c0-1.4,0.1-3.3,0.2-5.7c0.3-4.8,0.8-11.5,1.5-18.8s1.4-14,2-18.8c0.3-2.4,0.6-4.3,0.8-5.7
		c0.1-0.6,0.2-1.1,0.2-1.5C147.9,103.5,147.9,103.3,148,103.1z"/>
	<path class="st1" d="M137.4,163.2c-0.3,0.4-0.6,0.8-1,1.2c-0.4,0.5-0.8,0.9-1.2,1.3c-0.5,0.5-1.1,1.1-1.8,1.6
		c-0.7,0.6-1.5,1.2-2.3,1.8c-0.9,0.6-1.9,1.2-2.8,1.8c-4.5,2.5-9.5,4-14.6,4.4c-1.2,0-2.3,0.1-3.3,0.1s-1.9-0.1-2.9-0.2
		c-0.8-0.1-1.6-0.2-2.4-0.4c-0.6-0.1-1.2-0.2-1.8-0.4c-0.5-0.1-1-0.3-1.5-0.5c0-0.1,2.1,0.5,5.6,0.9c1,0.1,1.9,0.1,2.9,0.1
		s2.1-0.1,3.3-0.1c5-0.4,9.9-1.9,14.4-4.3c1-0.6,2-1.1,2.8-1.7s1.6-1.1,2.3-1.7C135.9,164.8,137.3,163.1,137.4,163.2z"/>
	<g class="st6">
		<path d="M104.8,174.5c-3-0.9-3.2-3.7-2-4.9s3-1.4,4.7-1.1c1.6,0.4,3.3,0.6,5,0.7c2.7-0.2,5-2.1,6.9-4.1s3.7-4.2,6.2-5.3
			c2.5-1.1,6-0.7,7.3,1.7c0.8,1.6,0.7,3.5-0.3,5c-0.9,1.5-2.2,2.7-3.7,3.6C121.9,174.8,113.2,176.4,104.8,174.5"/>
	</g>
	<g class="st11">
		<path d="M86.4,134.5c-0.5,0.8-5.8,7.9-5.8,7.9c-0.1,0.7-5.2,7.2-5.2,7.2s4.5-2.5,7.9-4.3c1.5-0.9,2.8-1.9,4.1-2.9
			c0,0-0.8-4.9-1.1-6.7c-0.8-4.1-1.3-13.4-1.3-13.4"/>
	</g>
	<path class="st1" d="M141.3,89c1.6,0.6,3.1,1.7,4,3.2c1.1,1.4,1.7,3.1,1.8,4.8C146.1,93.8,144.1,91,141.3,89L141.3,89z"/>
	<path class="st1" d="M86.4,134.5c-0.4,0.9-0.9,1.7-1.5,2.4c-1,1.5-2.4,3.5-3.9,5.6c-3.1,4.4-5.8,7.9-6,7.6l1.6-2.3l4-5.6
		c1.6-2.2,3-4.2,4.1-5.6C85.1,136,85.7,135.2,86.4,134.5z"/>
</g>
<g>
	<path class="st5" d="M213.8,347.4c0.1-0.2,0.2-0.3,0.4-0.5c0.3-0.3,0.7-0.7,1.2-1.2c1-1,2.4-2.3,3.9-3.8l0,0v0.2
		c-1.6-1.4-3-2.8-4-3.7l-1.2-1.1c-0.2-0.1-0.3-0.3-0.4-0.4c0.2,0.1,0.3,0.2,0.5,0.4l1.2,1.1c1,0.9,2.5,2.2,4,3.7l0.1,0.1l-0.1,0.1
		l0,0c-1.6,1.5-3,2.8-4,3.7l-1.2,1.1C214.2,347.1,214,347.2,213.8,347.4z"/>
	<path class="st5" d="M201.8,336.8c-0.1,0.2-0.2,0.3-0.4,0.5l-1.2,1.2c-1,1-2.4,2.3-3.9,3.8l0,0V342c1.6,1.4,3,2.8,4,3.7l1.2,1.1
		c0.2,0.1,0.3,0.3,0.4,0.4c-0.2-0.1-0.3-0.2-0.5-0.4c-0.3-0.3-0.8-0.7-1.2-1.1c-1-0.9-2.5-2.2-4-3.7l-0.1-0.1l0.1-0.1l0,0
		c1.6-1.5,3-2.8,4-3.7l1.2-1.1C201.4,337,201.6,336.9,201.8,336.8z"/>
	<path class="st5" d="M204.9,349.8c-0.1,0,1.2-3.6,2.8-7.9s3-7.8,3.1-7.8s-1.2,3.6-2.8,7.9C206.3,346.4,204.9,349.9,204.9,349.8z"/>
</g>
</svg>
